<svg width="32" height="39" viewBox="0 0 32 39" fill="none" xmlns="http://www.w3.org/2000/svg">
<rect y="4.5" width="32" height="32" fill="white"/>
<path d="M16 5.5C24.2843 5.5 31 12.2157 31 20.5C31 28.7843 24.2843 35.5 16 35.5C7.71573 35.5 1 28.7843 1 20.5C1 12.2157 7.71573 5.5 16 5.5Z" stroke="black" stroke-width="2"/>
<path d="M18.1484 11.0455L17.978 23.5909H16.0007L15.8303 11.0455H18.1484ZM16.9893 28.6364C16.5689 28.6364 16.2081 28.4858 15.907 28.1847C15.6058 27.8835 15.4553 27.5227 15.4553 27.1023C15.4553 26.6818 15.6058 26.321 15.907 26.0199C16.2081 25.7187 16.5689 25.5682 16.9893 25.5682C17.4098 25.5682 17.7706 25.7187 18.0717 26.0199C18.3729 26.321 18.5234 26.6818 18.5234 27.1023C18.5234 27.3807 18.4524 27.6364 18.3104 27.8693C18.174 28.1023 17.9893 28.2898 17.7564 28.4318C17.5291 28.5682 17.2734 28.6364 16.9893 28.6364Z" fill="black"/>
</svg>
